<?xml version="1.0" encoding="UTF-8" standalone="yes"?>
<!-- Created with sK1/UniConvertor (http://sk1project.org/) -->
<svg xmlns="http://www.w3.org/2000/svg" xmlns:xlink="http://www.w3.org/1999/xlink"
     width="595.276pt" height="841.89pt" viewBox="0 200 595.276 841.89"
     fill-rule="evenodd">
  <g>
    <path style="stroke:none" d="M 6 553.82C 6 553.82 -15.42 623 29.34 717.19C 45.34 750.87 86.69 795.55 133.7 841.56C 217.72 841.89 303.4 841.56 303.4 841.56C 303.4 841.56 288.34 732.15 220.72 652.51C 170.28 593.11 78.36 556.39 6 553.82z"/>
    <path style="stroke:none" d="M 571.13 633.84C 571.13 633.84 371.83 625.59 350.58 810.13C 378.34 813.88 494.61 806.38 545.62 715.36C 563.66 683.17 571.13 633.84 571.13 633.84z"/>
    <path style="stroke:none" d="M 397.09 306.77C 397.09 306.77 251.39 349.44 254.39 561.83C 255.38 631.53 295.73 691.86 319.41 687.19C 415.43 643.18 462.77 507.15 438.77 389.45C 428.36 338.43 397.09 306.77 397.09 306.77z"/>
  </g>
</svg>
